<?xml version="1.0" encoding="UTF-8"?>
<!DOCTYPE svg PUBLIC "-//W3C//DTD SVG 1.1//EN" "http://www.w3.org/Graphics/SVG/1.1/DTD/svg11.dtd">
<svg xmlns="http://www.w3.org/2000/svg" version="1.1" width="1350px" height="900px" style="shape-rendering:geometricPrecision; text-rendering:geometricPrecision; image-rendering:optimizeQuality; fill-rule:evenodd; clip-rule:evenodd" xmlns:xlink="http://www.w3.org/1999/xlink">
<g><path style="opacity:1" fill="#fefefe" d="M 161.5,253.5 C 536.167,253.333 910.833,253.5 1285.5,254C 1297.39,257.894 1305.23,265.727 1309,277.5C 1310.62,409.825 1310.96,542.158 1310,674.5C 1303.41,691.042 1291.24,698.876 1273.5,698C 869.167,698.667 464.833,698.667 60.5,698C 50.6667,693.5 43.5,686.333 39,676.5C 38.6667,671.5 38.3333,666.5 38,661.5C 37.0289,533.155 37.3623,404.821 39,276.5C 42.526,266.307 49.3593,259.474 59.5,256C 93.6357,254.876 127.636,254.042 161.5,253.5 Z"/></g>
<g><path style="opacity:1" fill="#405c5a" d="M 430.5,315.5 C 454.5,315.5 478.5,315.5 502.5,315.5C 502.93,334.84 503.597,354.173 504.5,373.5C 504.332,377.525 503.999,381.525 503.5,385.5C 480.147,383.927 456.814,382.261 433.5,380.5C 432.641,358.843 431.641,337.176 430.5,315.5 Z"/></g>
<g><path style="opacity:1" fill="#405c5a" d="M 1052.5,318.5 C 1076.15,320.118 1099.82,321.785 1123.5,323.5C 1130.2,355.652 1137.53,387.652 1145.5,419.5C 1149.55,386.576 1152.89,353.576 1155.5,320.5C 1182.84,321.44 1210.17,322.607 1237.5,324C 1240.62,324.206 1243.62,324.873 1246.5,326C 1230.43,375.787 1214.43,425.62 1198.5,475.5C 1214.63,526.562 1230.96,577.562 1247.5,628.5C 1247.29,629.086 1246.96,629.586 1246.5,630C 1223.85,631.478 1201.19,631.811 1178.5,631C 1168.74,599.06 1158.58,567.227 1148,535.5C 1142.61,567.134 1135.94,598.467 1128,629.5C 1125.96,631.604 1123.46,632.771 1120.5,633C 1097.25,635.888 1074.25,634.555 1051.5,629C 1050.48,628.481 1049.82,627.647 1049.5,626.5C 1065.6,576.02 1081.6,525.52 1097.5,475C 1081.19,423.249 1065.19,371.416 1049.5,319.5C 1050.79,319.737 1051.79,319.404 1052.5,318.5 Z"/></g>
<g><path style="opacity:1" fill="#405c5a" d="M 943.5,319.5 C 969.188,318.194 994.188,321.694 1018.5,330C 1025.03,332.513 1031.19,335.68 1037,339.5C 1039.28,423.856 1038.62,508.19 1035,592.5C 1034.39,602.379 1032.72,612.045 1030,621.5C 1023.96,626.074 1017.12,628.908 1009.5,630C 986.239,634.271 962.906,634.605 939.5,631C 928.451,629.659 917.451,627.992 906.5,626C 891.763,621.764 882.096,612.264 877.5,597.5C 879.57,515.192 881.403,432.859 883,350.5C 884.885,342.906 887.719,335.739 891.5,329C 908.776,324.709 926.11,321.542 943.5,319.5 Z"/></g>
<g><path style="opacity:1" fill="#405c5a" d="M 568.5,320.5 C 598.169,320.333 627.835,320.5 657.5,321C 667.35,325.682 675.85,332.182 683,340.5C 682.329,385.831 681.495,431.164 680.5,476.5C 667.511,477.365 654.511,478.032 641.5,478.5C 640.613,451.094 638.947,423.76 636.5,396.5C 635.5,396.167 634.5,395.833 633.5,395.5C 621.177,396.326 608.844,396.993 596.5,397.5C 594.081,435.795 592.248,474.129 591,512.5C 590.047,528.234 590.38,543.901 592,559.5C 594.708,563.104 598.208,565.604 602.5,567C 614.254,569.184 625.921,568.85 637.5,566C 638.492,549.244 638.825,532.411 638.5,515.5C 652.15,516.312 665.817,516.645 679.5,516.5C 680.7,550.169 681.034,583.836 680.5,617.5C 653.183,632.036 624.183,636.869 593.5,632C 573.869,629.122 555.036,623.622 537,615.5C 523.883,548.055 519.549,480.055 524,411.5C 526.207,390.005 531.54,369.338 540,349.5C 544.705,339.572 551.205,331.072 559.5,324C 562.459,322.396 565.459,321.229 568.5,320.5 Z"/></g>
<g><path style="opacity:1" fill="#405c5a" d="M 752.5,320.5 C 769.504,320.786 786.504,321.286 803.5,322C 816.826,322.331 829.493,325.331 841.5,331C 844.902,334.968 847.402,339.468 849,344.5C 857.919,371.165 859.919,398.165 855,425.5C 850.619,440.768 842.786,453.935 831.5,465C 837.667,468.5 842.5,473.333 846,479.5C 851.148,489.943 854.481,500.943 856,512.5C 859.378,544.198 859.044,575.865 855,607.5C 854.728,612.438 852.228,615.604 847.5,617C 817.864,625.997 787.53,630.33 756.5,630C 735.161,630.572 713.827,630.406 692.5,629.5C 694.308,528.179 695.308,426.846 695.5,325.5C 714.63,323.683 733.63,322.017 752.5,320.5 Z"/></g>
<g><path style="opacity:1" fill="#405c5a" d="M 98.5,321.5 C 146.833,321.5 195.167,321.5 243.5,321.5C 242.639,352.491 242.305,383.491 242.5,414.5C 217.291,411.193 191.958,409.527 166.5,409.5C 165.975,416.513 165.309,423.513 164.5,430.5C 164.68,431.554 165.013,432.554 165.5,433.5C 187.372,437.097 209.372,439.931 231.5,442C 232.081,442.893 232.415,443.893 232.5,445C 231.714,456.205 230.714,467.372 229.5,478.5C 208.536,480.518 187.536,482.184 166.5,483.5C 165.065,507.813 164.065,532.147 163.5,556.5C 189.876,559.255 216.21,562.422 242.5,566C 243.66,588.094 243.827,610.261 243,632.5C 195.578,634.035 148.078,634.702 100.5,634.5C 100.259,530.162 99.5928,425.829 98.5,321.5 Z"/></g>
<g><path style="opacity:1" fill="#405c5a" d="M 266.5,324.5 C 299.185,324.121 331.852,324.621 364.5,326C 377.331,326.499 389.664,329.166 401.5,334C 405.194,336.687 407.694,340.187 409,344.5C 410.846,351.065 412.18,357.731 413,364.5C 415.781,410.283 414.448,455.95 409,501.5C 408.535,502.931 407.701,504.097 406.5,505C 397.604,509.781 388.271,513.448 378.5,516C 358.832,519.217 339.165,521.55 319.5,523C 323.102,556.48 327.768,589.813 333.5,623C 332.377,624.044 331.044,624.71 329.5,625C 306.205,626.943 282.872,628.109 259.5,628.5C 257.945,542.505 256.611,456.505 255.5,370.5C 255.833,355.833 256.167,341.167 256.5,326.5C 259.971,325.903 263.305,325.236 266.5,324.5 Z"/></g>
<g><path style="opacity:1" fill="#fefffe" d="M 741.5,376.5 C 753.221,376.113 764.887,376.613 776.5,378C 788.734,382.234 795.901,390.734 798,403.5C 801.487,432.025 788.987,448.192 760.5,452C 754.472,452.83 748.472,452.664 742.5,451.5C 739.246,427.28 737.413,402.947 737,378.5C 738.622,377.901 740.122,377.234 741.5,376.5 Z"/></g>
<g><path style="opacity:1" fill="#fefffe" d="M 293.5,383.5 C 312.253,383.169 330.92,384.002 349.5,386C 359.556,398.874 363.889,413.541 362.5,430C 362.07,443.191 361.236,456.358 360,469.5C 359.837,471.676 359.004,473.509 357.5,475C 337.475,480.472 317.141,482.305 296.5,480.5C 293.855,448.19 292.855,415.857 293.5,383.5 Z"/></g>
<g><path style="opacity:1" fill="#405c5a" d="M 432.5,398.5 C 457.171,398.55 481.838,398.883 506.5,399.5C 506.532,474.849 505.532,550.182 503.5,625.5C 478.875,626.833 454.208,627.833 429.5,628.5C 431.071,551.841 432.071,475.175 432.5,398.5 Z"/></g>
<g><path style="opacity:1" fill="#fefffe" d="M 943.5,400.5 C 955.206,400.199 966.873,400.699 978.5,402C 985.057,402.894 989.557,406.394 992,412.5C 994.025,442.841 993.691,473.174 991,503.5C 988.574,526.576 985.574,549.576 982,572.5C 980.702,575.79 978.202,577.29 974.5,577C 960.514,579.098 946.514,579.432 932.5,578C 927.478,576.308 924.645,572.808 924,567.5C 922.417,543.529 922.084,519.529 923,495.5C 924.461,466.463 926.461,437.463 929,408.5C 929.251,406.567 929.751,404.734 930.5,403C 934.965,402.126 939.298,401.293 943.5,400.5 Z"/></g>
<g><path style="opacity:1" fill="#fefffe" d="M 731.5,485.5 C 749.175,485.333 764.342,491.333 777,503.5C 781.645,510.1 784.311,517.433 785,525.5C 794.508,566.792 778.342,586.792 736.5,585.5C 733.644,552.233 731.977,518.9 731.5,485.5 Z"/></g>
</svg>
